# This file uses centimeters as units for non-parametric coordinates.

mtllib 8.mtl
g default
v 0.000000 6.000000 0.000000
v 6.000000 0.000000 0.000000
v 0.000000 0.000000 -6.000000
v -6.000000 0.000000 0.000000
v 0.000000 -0.000000 6.000000
v 0.000000 -6.000000 -0.000000
vt 0.571429 0.125000
vt 0.142857 0.375000
vt 0.428571 0.375000
vt 0.714286 0.375000
vt 1.000000 0.375000
vt 0.000000 0.625000
vt 0.285714 0.625000
vt 0.571429 0.625000
vt 0.857143 0.625000
vt 0.428571 0.875000
vn 0.577350 0.577350 -0.577350
vn 0.577350 0.577350 -0.577350
vn 0.577350 0.577350 -0.577350
vn -0.577350 0.577350 -0.577350
vn -0.577350 0.577350 -0.577350
vn -0.577350 0.577350 -0.577350
vn -0.577350 0.577350 0.577350
vn -0.577350 0.577350 0.577350
vn -0.577350 0.577350 0.577350
vn 0.577350 0.577350 0.577350
vn 0.577350 0.577350 0.577350
vn 0.577350 0.577350 0.577350
vn 0.577350 -0.577350 -0.577350
vn 0.577350 -0.577350 -0.577350
vn 0.577350 -0.577350 -0.577350
vn -0.577350 -0.577350 -0.577350
vn -0.577350 -0.577350 -0.577350
vn -0.577350 -0.577350 -0.577350
vn -0.577350 -0.577350 0.577350
vn -0.577350 -0.577350 0.577350
vn -0.577350 -0.577350 0.577350
vn 0.577350 -0.577350 0.577350
vn 0.577350 -0.577350 0.577350
vn 0.577350 -0.577350 0.577350
s off
g pSolid3
usemtl initialShadingGroup
f 2/7/1 3/2/2 1/3/3
f 3/1/4 4/4/5 1/3/6
f 4/4/7 5/8/8 1/3/9
f 1/3/10 5/8/11 2/7/12
f 6/6/13 3/2/14 2/7/15
f 6/9/16 4/4/17 3/5/18
f 6/9/19 5/8/20 4/4/21
f 6/10/22 2/7/23 5/8/24
